# xmcd CD database file generated by OrangeCD 5.2
#
# Track frame offsets:
#	150
#	12417
#	25192
#	38351
#	52360
#	63977
#	74834
#	86843
#	99821
#	113055
#	126900
#	138503
#	152049
#	165882
#	178120
#	190714
#	204670
#	217346
#	229668
#	241973
#
# Disc length: 3410 seconds
#
# Revision: 0
# Processed by: cddbd v1.5.1PL0 Copyright (c) Steve Scherf et al.
# Submitted via: OrangeCD 5.2
#
DISCID=1b0d5014
DTITLE=Various Artist - Country Legends
DYEAR=1900
DGENRE=Country
TTITLE0=Gene Autry - Deep In The Heart Of Texas
TTITLE1=Sons of the Pioneers - Have I Told You Lately That I Love You
TTITLE2=Tex Ritter - Jealous Heart
TTITLE3=The Carter Family - Can The Circle Be Unbroken
TTITLE4=Bill Monroe and His Bluegrass Boys - Rocky Road Blues
TTITLE5=Gene Autry - You Are My Sunshine
TTITLE6=Bob Wills and His Texas Playboys - Time Changes Everything
TTITLE7=Sons of the Pioneers - Cool Water
TTITLE8=Jimmie Rodgers - Daddy And Home
TTITLE9=Hank Snow - The Blue Velvet Band
TTITLE10=Bob Wills and His Texas Playboys - New San Antonto Rose
TTITLE11=Tex Ritter - There's A New Moon Over My Shoulder
TTITLE12=Jimmie Rodgers - My Little Lady
TTITLE13=Gene Autry - It Makes No Difference Now
TTITLE14=Roy Acuff and His Smoky Mountain Boys - Night Train To Memphis
TTITLE15=Patsy Montana - I Want To Be A Cowboy's Sweetheart
TTITLE16=Tex Ritter - I'm Wastin' My Tears On You
TTITLE17=Roy Acuff and His Smoky Mountain Boys - Wreck On The Highway
TTITLE18=Bill Monroe and His Bluegrass Boys - Mule Skinner Blues
TTITLE19=Jimmie Rodgers - Blue Yodel No9
EXTD=
EXTT0=
EXTT1=
EXTT2=
EXTT3=
EXTT4=
EXTT5=
EXTT6=
EXTT7=
EXTT8=
EXTT9=
EXTT10=
EXTT11=
EXTT12=
EXTT13=
EXTT14=
EXTT15=
EXTT16=
EXTT17=
EXTT18=
EXTT19=
PLAYORDER=
